<?xml version="1.0" encoding="UTF-8" standalone="no"?>
<!DOCTYPE svg PUBLIC "-//W3C//DTD SVG 1.1//EN"
 "http://www.w3.org/Graphics/SVG/1.1/DTD/svg11.dtd">
<!-- Generated by graphviz version 2.30.1 (20180420.1509)
 -->
<!-- Title: snakemake_dag Pages: 1 -->
<svg width="382pt" height="620pt"
 viewBox="0.00 0.00 382.00 620.00" xmlns="http://www.w3.org/2000/svg" xmlns:xlink="http://www.w3.org/1999/xlink">
<g id="graph0" class="graph" transform="scale(1 1) rotate(0) translate(4 616)">
<title>snakemake_dag</title>
<polygon fill="white" stroke="white" points="-4,5 -4,-616 379,-616 379,5 -4,5"/>
<!-- 0 -->
<g id="node1" class="node"><title>0</title>
<path fill="none" stroke="#d85656" stroke-width="2" d="M242,-108C242,-108 156,-108 156,-108 150,-108 144,-102 144,-96 144,-96 144,-84 144,-84 144,-78 150,-72 156,-72 156,-72 242,-72 242,-72 248,-72 254,-78 254,-84 254,-84 254,-96 254,-96 254,-102 248,-108 242,-108"/>
<text text-anchor="middle" x="199" y="-87.5" font-family="sans" font-size="10.00">gene_count_matrix</text>
</g>
<!-- 4 -->
<g id="node5" class="node"><title>4</title>
<path fill="none" stroke="#8fd856" stroke-width="2" d="M214,-36C214,-36 184,-36 184,-36 178,-36 172,-30 172,-24 172,-24 172,-12 172,-12 172,-6 178,-0 184,-0 184,-0 214,-0 214,-0 220,-0 226,-6 226,-12 226,-12 226,-24 226,-24 226,-30 220,-36 214,-36"/>
<text text-anchor="middle" x="199" y="-15.5" font-family="sans" font-size="10.00">all</text>
</g>
<!-- 0&#45;&gt;4 -->
<g id="edge8" class="edge"><title>0&#45;&gt;4</title>
<path fill="none" stroke="grey" stroke-width="2" d="M199,-71.6966C199,-63.9827 199,-54.7125 199,-46.1124"/>
<polygon fill="grey" stroke="grey" points="202.5,-46.1043 199,-36.1043 195.5,-46.1044 202.5,-46.1043"/>
</g>
<!-- 1 -->
<g id="node2" class="node"><title>1</title>
<path fill="none" stroke="#d87d56" stroke-width="2" d="M362,-396C362,-396 304,-396 304,-396 298,-396 292,-390 292,-384 292,-384 292,-372 292,-372 292,-366 298,-360 304,-360 304,-360 362,-360 362,-360 368,-360 374,-366 374,-372 374,-372 374,-384 374,-384 374,-390 368,-396 362,-396"/>
<text text-anchor="middle" x="333" y="-375.5" font-family="sans" font-size="10.00">repres_genes</text>
</g>
<!-- 1&#45;&gt;4 -->
<g id="edge9" class="edge"><title>1&#45;&gt;4</title>
<path fill="none" stroke="grey" stroke-width="2" d="M333.395,-359.952C333.978,-333.294 335,-280.119 335,-235 335,-235 335,-235 335,-161 335,-103.083 275.261,-59.5619 234.969,-36.7953"/>
<polygon fill="grey" stroke="grey" points="236.647,-33.7237 226.195,-31.9886 233.283,-39.8628 236.647,-33.7237"/>
</g>
<!-- 2 -->
<g id="node3" class="node"><title>2</title>
<path fill="none" stroke="#56d0d8" stroke-width="2" d="M203,-396C203,-396 135,-396 135,-396 129,-396 123,-390 123,-384 123,-384 123,-372 123,-372 123,-366 129,-360 135,-360 135,-360 203,-360 203,-360 209,-360 215,-366 215,-372 215,-372 215,-384 215,-384 215,-390 209,-396 203,-396"/>
<text text-anchor="middle" x="169" y="-375.5" font-family="sans" font-size="10.00">minimap_index</text>
</g>
<!-- 5 -->
<g id="node6" class="node"><title>5</title>
<path fill="none" stroke="#68d856" stroke-width="2" d="M254.25,-324C254.25,-324 189.75,-324 189.75,-324 183.75,-324 177.75,-318 177.75,-312 177.75,-312 177.75,-300 177.75,-300 177.75,-294 183.75,-288 189.75,-288 189.75,-288 254.25,-288 254.25,-288 260.25,-288 266.25,-294 266.25,-300 266.25,-300 266.25,-312 266.25,-312 266.25,-318 260.25,-324 254.25,-324"/>
<text text-anchor="middle" x="222" y="-303.5" font-family="sans" font-size="10.00">minimap_align</text>
</g>
<!-- 2&#45;&gt;5 -->
<g id="edge12" class="edge"><title>2&#45;&gt;5</title>
<path fill="none" stroke="grey" stroke-width="2" d="M182.101,-359.697C188.391,-351.389 196.047,-341.277 202.965,-332.141"/>
<polygon fill="grey" stroke="grey" points="205.804,-334.19 209.05,-324.104 200.223,-329.964 205.804,-334.19"/>
</g>
<!-- 3 -->
<g id="node4" class="node"><title>3</title>
<path fill="none" stroke="#d8a456" stroke-width="2" d="M273.25,-468C273.25,-468 160.75,-468 160.75,-468 154.75,-468 148.75,-462 148.75,-456 148.75,-456 148.75,-444 148.75,-444 148.75,-438 154.75,-432 160.75,-432 160.75,-432 273.25,-432 273.25,-432 279.25,-432 285.25,-438 285.25,-444 285.25,-444 285.25,-456 285.25,-456 285.25,-462 279.25,-468 273.25,-468"/>
<text text-anchor="middle" x="217" y="-447.5" font-family="sans" font-size="10.00">nonredundant_catalogue</text>
</g>
<!-- 3&#45;&gt;2 -->
<g id="edge5" class="edge"><title>3&#45;&gt;2</title>
<path fill="none" stroke="grey" stroke-width="2" d="M205.135,-431.697C199.497,-423.474 192.646,-413.483 186.431,-404.421"/>
<polygon fill="grey" stroke="grey" points="189.271,-402.372 180.729,-396.104 183.497,-406.331 189.271,-402.372"/>
</g>
<!-- 3&#45;&gt;5 -->
<g id="edge11" class="edge"><title>3&#45;&gt;5</title>
<path fill="none" stroke="grey" stroke-width="2" d="M219.843,-431.871C221.416,-421.519 223.208,-408.04 224,-396 225.36,-375.31 224.746,-351.864 223.852,-334.232"/>
<polygon fill="grey" stroke="grey" points="227.337,-333.866 223.275,-324.081 220.349,-334.264 227.337,-333.866"/>
</g>
<!-- 6 -->
<g id="node7" class="node"><title>6</title>
<path fill="none" stroke="#d8cb56" stroke-width="2" d="M226,-252C226,-252 172,-252 172,-252 166,-252 160,-246 160,-240 160,-240 160,-228 160,-228 160,-222 166,-216 172,-216 172,-216 226,-216 226,-216 232,-216 238,-222 238,-228 238,-228 238,-240 238,-240 238,-246 232,-252 226,-252"/>
<text text-anchor="middle" x="199" y="-231.5" font-family="sans" font-size="10.00">count_genes</text>
</g>
<!-- 5&#45;&gt;6 -->
<g id="edge13" class="edge"><title>5&#45;&gt;6</title>
<path fill="none" stroke="grey" stroke-width="2" d="M216.315,-287.697C213.752,-279.898 210.667,-270.509 207.815,-261.829"/>
<polygon fill="grey" stroke="grey" points="211.067,-260.512 204.62,-252.104 204.416,-262.697 211.067,-260.512"/>
</g>
<!-- 9 -->
<g id="node10" class="node"><title>9</title>
<path fill="none" stroke="#56d8b9" stroke-width="2" d="M294.25,-180C294.25,-180 239.75,-180 239.75,-180 233.75,-180 227.75,-174 227.75,-168 227.75,-168 227.75,-156 227.75,-156 227.75,-150 233.75,-144 239.75,-144 239.75,-144 294.25,-144 294.25,-144 300.25,-144 306.25,-150 306.25,-156 306.25,-156 306.25,-168 306.25,-168 306.25,-174 300.25,-180 294.25,-180"/>
<text text-anchor="middle" x="267" y="-159.5" font-family="sans" font-size="10.00">gene_names</text>
</g>
<!-- 5&#45;&gt;9 -->
<g id="edge15" class="edge"><title>5&#45;&gt;9</title>
<path fill="none" stroke="grey" stroke-width="2" d="M231.327,-287.737C236.519,-277.566 242.769,-264.316 247,-252 253.978,-231.687 259.176,-207.918 262.521,-190.056"/>
<polygon fill="grey" stroke="grey" points="265.997,-190.498 264.32,-180.037 259.108,-189.261 265.997,-190.498"/>
</g>
<!-- 6&#45;&gt;0 -->
<g id="edge1" class="edge"><title>6&#45;&gt;0</title>
<path fill="none" stroke="grey" stroke-width="2" d="M199,-215.871C199,-191.67 199,-147.211 199,-118.393"/>
<polygon fill="grey" stroke="grey" points="202.5,-118.189 199,-108.189 195.5,-118.189 202.5,-118.189"/>
</g>
<!-- 10 -->
<g id="node11" class="node"><title>10</title>
<path fill="none" stroke="#b6d856" stroke-width="2" d="M159,-180C159,-180 97,-180 97,-180 91,-180 85,-174 85,-168 85,-168 85,-156 85,-156 85,-150 91,-144 97,-144 97,-144 159,-144 159,-144 165,-144 171,-150 171,-156 171,-156 171,-168 171,-168 171,-174 165,-180 159,-180"/>
<text text-anchor="middle" x="128" y="-159.5" font-family="sans" font-size="10.00">create_header</text>
</g>
<!-- 6&#45;&gt;10 -->
<g id="edge16" class="edge"><title>6&#45;&gt;10</title>
<path fill="none" stroke="grey" stroke-width="2" d="M181.449,-215.697C172.766,-207.135 162.137,-196.656 152.652,-187.304"/>
<polygon fill="grey" stroke="grey" points="154.927,-184.633 145.349,-180.104 150.012,-189.617 154.927,-184.633"/>
</g>
<!-- 7 -->
<g id="node8" class="node"><title>7</title>
<path fill="none" stroke="#56d86b" stroke-width="2" d="M189,-612C189,-612 133,-612 133,-612 127,-612 121,-606 121,-600 121,-600 121,-588 121,-588 121,-582 127,-576 133,-576 133,-576 189,-576 189,-576 195,-576 201,-582 201,-588 201,-588 201,-600 201,-600 201,-606 195,-612 189,-612"/>
<text text-anchor="middle" x="161" y="-591.5" font-family="sans" font-size="10.00">gene_predict</text>
</g>
<!-- 8 -->
<g id="node9" class="node"><title>8</title>
<path fill="none" stroke="#56d892" stroke-width="2" d="M292.25,-540C292.25,-540 223.75,-540 223.75,-540 217.75,-540 211.75,-534 211.75,-528 211.75,-528 211.75,-516 211.75,-516 211.75,-510 217.75,-504 223.75,-504 223.75,-504 292.25,-504 292.25,-504 298.25,-504 304.25,-510 304.25,-516 304.25,-516 304.25,-528 304.25,-528 304.25,-534 298.25,-540 292.25,-540"/>
<text text-anchor="middle" x="258" y="-519.5" font-family="sans" font-size="10.00">combine_genes</text>
</g>
<!-- 7&#45;&gt;8 -->
<g id="edge14" class="edge"><title>7&#45;&gt;8</title>
<path fill="none" stroke="grey" stroke-width="2" d="M184.978,-575.697C197.311,-566.796 212.516,-555.823 225.853,-546.199"/>
<polygon fill="grey" stroke="grey" points="228.237,-548.794 234.298,-540.104 224.141,-543.118 228.237,-548.794"/>
</g>
<!-- 12 -->
<g id="node13" class="node"><title>12</title>
<path fill="none" stroke="#567bd8" stroke-width="2" d="M116,-468C116,-468 12,-468 12,-468 6,-468 0,-462 0,-456 0,-456 0,-444 0,-444 0,-438 6,-432 12,-432 12,-432 116,-432 116,-432 122,-432 128,-438 128,-444 128,-444 128,-456 128,-456 128,-462 122,-468 116,-468"/>
<text text-anchor="middle" x="64" y="-447.5" font-family="sans" font-size="10.00">nonredundant_clusters</text>
</g>
<!-- 7&#45;&gt;12 -->
<g id="edge18" class="edge"><title>7&#45;&gt;12</title>
<path fill="none" stroke="grey" stroke-width="2" d="M124.44,-575.999C109.443,-567.261 93.2345,-555.215 83,-540 70.7058,-521.723 66.1672,-496.958 64.5832,-478.192"/>
<polygon fill="grey" stroke="grey" points="68.0758,-477.962 63.966,-468.197 61.0891,-478.393 68.0758,-477.962"/>
</g>
<!-- 8&#45;&gt;1 -->
<g id="edge4" class="edge"><title>8&#45;&gt;1</title>
<path fill="none" stroke="grey" stroke-width="2" d="M270.835,-503.846C278.114,-493.712 287.114,-480.462 294,-468 305.221,-447.693 315.642,-423.518 322.883,-405.492"/>
<polygon fill="grey" stroke="grey" points="326.145,-406.761 326.564,-396.174 319.635,-404.189 326.145,-406.761"/>
</g>
<!-- 8&#45;&gt;3 -->
<g id="edge6" class="edge"><title>8&#45;&gt;3</title>
<path fill="none" stroke="grey" stroke-width="2" d="M247.865,-503.697C243.148,-495.644 237.438,-485.894 232.218,-476.982"/>
<polygon fill="grey" stroke="grey" points="235.092,-474.964 227.018,-468.104 229.052,-478.502 235.092,-474.964"/>
</g>
<!-- 9&#45;&gt;0 -->
<g id="edge2" class="edge"><title>9&#45;&gt;0</title>
<path fill="none" stroke="grey" stroke-width="2" d="M250.191,-143.697C241.874,-135.135 231.695,-124.656 222.61,-115.304"/>
<polygon fill="grey" stroke="grey" points="225.094,-112.838 215.616,-108.104 220.073,-117.716 225.094,-112.838"/>
</g>
<!-- 10&#45;&gt;0 -->
<g id="edge3" class="edge"><title>10&#45;&gt;0</title>
<path fill="none" stroke="grey" stroke-width="2" d="M145.551,-143.697C154.234,-135.135 164.863,-124.656 174.348,-115.304"/>
<polygon fill="grey" stroke="grey" points="176.988,-117.617 181.651,-108.104 172.073,-112.633 176.988,-117.617"/>
</g>
<!-- 11 -->
<g id="node12" class="node"><title>11</title>
<path fill="none" stroke="#56a9d8" stroke-width="2" d="M181.25,-540C181.25,-540 104.75,-540 104.75,-540 98.75,-540 92.75,-534 92.75,-528 92.75,-528 92.75,-516 92.75,-516 92.75,-510 98.75,-504 104.75,-504 104.75,-504 181.25,-504 181.25,-504 187.25,-504 193.25,-510 193.25,-516 193.25,-516 193.25,-528 193.25,-528 193.25,-534 187.25,-540 181.25,-540"/>
<text text-anchor="middle" x="143" y="-519.5" font-family="sans" font-size="10.00">redundant_genes</text>
</g>
<!-- 11&#45;&gt;3 -->
<g id="edge7" class="edge"><title>11&#45;&gt;3</title>
<path fill="none" stroke="grey" stroke-width="2" d="M161.292,-503.697C170.433,-495.05 181.64,-484.449 191.6,-475.027"/>
<polygon fill="grey" stroke="grey" points="194.059,-477.519 198.918,-468.104 189.248,-472.434 194.059,-477.519"/>
</g>
<!-- 11&#45;&gt;12 -->
<g id="edge17" class="edge"><title>11&#45;&gt;12</title>
<path fill="none" stroke="grey" stroke-width="2" d="M123.472,-503.697C113.618,-494.965 101.514,-484.24 90.8039,-474.75"/>
<polygon fill="grey" stroke="grey" points="93.1092,-472.117 83.3035,-468.104 88.4669,-477.356 93.1092,-472.117"/>
</g>
<!-- 12&#45;&gt;4 -->
<g id="edge10" class="edge"><title>12&#45;&gt;4</title>
<path fill="none" stroke="grey" stroke-width="2" d="M62.617,-431.964C60.577,-405.323 57,-352.169 57,-307 57,-307 57,-307 57,-161 57,-101.198 120.749,-57.785 162.82,-35.646"/>
<polygon fill="grey" stroke="grey" points="164.636,-38.649 171.957,-30.9901 161.458,-32.4121 164.636,-38.649"/>
</g>
</g>
</svg>
