<?xml version="1.0" encoding="UTF-8" standalone="no"?>
<!DOCTYPE svg PUBLIC "-//W3C//DTD SVG 1.1//EN"
 "http://www.w3.org/Graphics/SVG/1.1/DTD/svg11.dtd">
<!-- Generated by graphviz version 2.30.1 (20180420.1509)
 -->
<!-- Title: snakemake_dag Pages: 1 -->
<svg width="321pt" height="620pt"
 viewBox="0.00 0.00 321.00 620.00" xmlns="http://www.w3.org/2000/svg" xmlns:xlink="http://www.w3.org/1999/xlink">
<g id="graph0" class="graph" transform="scale(1 1) rotate(0) translate(4 616)">
<title>snakemake_dag</title>
<polygon fill="white" stroke="white" points="-4,5 -4,-616 318,-616 318,5 -4,5"/>
<!-- 0 -->
<g id="node1" class="node"><title>0</title>
<path fill="none" stroke="#d87d56" stroke-width="2" d="M116,-468C116,-468 12,-468 12,-468 6,-468 0,-462 0,-456 0,-456 0,-444 0,-444 0,-438 6,-432 12,-432 12,-432 116,-432 116,-432 122,-432 128,-438 128,-444 128,-444 128,-456 128,-456 128,-462 122,-468 116,-468"/>
<text text-anchor="middle" x="64" y="-447.5" font-family="sans" font-size="10.00">nonredundant_clusters</text>
</g>
<!-- 1 -->
<g id="node2" class="node"><title>1</title>
<path fill="none" stroke="#56d8a2" stroke-width="2" d="M85,-324C85,-324 43,-324 43,-324 37,-324 31,-318 31,-312 31,-312 31,-300 31,-300 31,-294 37,-288 43,-288 43,-288 85,-288 85,-288 91,-288 97,-294 97,-300 97,-300 97,-312 97,-312 97,-318 91,-324 85,-324"/>
<text text-anchor="middle" x="64" y="-303.5" font-family="sans" font-size="10.00">gene_lists</text>
</g>
<!-- 0&#45;&gt;1 -->
<g id="edge3" class="edge"><title>0&#45;&gt;1</title>
<path fill="none" stroke="grey" stroke-width="2" d="M64,-431.871C64,-407.67 64,-363.211 64,-334.393"/>
<polygon fill="grey" stroke="grey" points="67.5001,-334.189 64,-324.189 60.5001,-334.189 67.5001,-334.189"/>
</g>
<!-- 4 -->
<g id="node5" class="node"><title>4</title>
<path fill="none" stroke="#d8c356" stroke-width="2" d="M135,-36C135,-36 105,-36 105,-36 99,-36 93,-30 93,-24 93,-24 93,-12 93,-12 93,-6 99,-0 105,-0 105,-0 135,-0 135,-0 141,-0 147,-6 147,-12 147,-12 147,-24 147,-24 147,-30 141,-36 135,-36"/>
<text text-anchor="middle" x="120" y="-15.5" font-family="sans" font-size="10.00">all</text>
</g>
<!-- 1&#45;&gt;4 -->
<g id="edge8" class="edge"><title>1&#45;&gt;4</title>
<path fill="none" stroke="grey" stroke-width="2" d="M65.0556,-287.927C67.0962,-258.363 72.3516,-195.831 83,-144 90.0853,-109.512 102.223,-70.7801 110.656,-45.6975"/>
<polygon fill="grey" stroke="grey" points="113.995,-46.7486 113.907,-36.1541 107.369,-44.4909 113.995,-46.7486"/>
</g>
<!-- 2 -->
<g id="node3" class="node"><title>2</title>
<path fill="none" stroke="#c6d856" stroke-width="2" d="M166,-180C166,-180 104,-180 104,-180 98,-180 92,-174 92,-168 92,-168 92,-156 92,-156 92,-150 98,-144 104,-144 104,-144 166,-144 166,-144 172,-144 178,-150 178,-156 178,-156 178,-168 178,-168 178,-174 172,-180 166,-180"/>
<text text-anchor="middle" x="135" y="-159.5" font-family="sans" font-size="10.00">create_header</text>
</g>
<!-- 3 -->
<g id="node4" class="node"><title>3</title>
<path fill="none" stroke="#d8a456" stroke-width="2" d="M219,-108C219,-108 133,-108 133,-108 127,-108 121,-102 121,-96 121,-96 121,-84 121,-84 121,-78 127,-72 133,-72 133,-72 219,-72 219,-72 225,-72 231,-78 231,-84 231,-84 231,-96 231,-96 231,-102 225,-108 219,-108"/>
<text text-anchor="middle" x="176" y="-87.5" font-family="sans" font-size="10.00">gene_count_matrix</text>
</g>
<!-- 2&#45;&gt;3 -->
<g id="edge7" class="edge"><title>2&#45;&gt;3</title>
<path fill="none" stroke="grey" stroke-width="2" d="M145.135,-143.697C149.852,-135.644 155.562,-125.894 160.782,-116.982"/>
<polygon fill="grey" stroke="grey" points="163.948,-118.502 165.982,-108.104 157.908,-114.964 163.948,-118.502"/>
</g>
<!-- 3&#45;&gt;4 -->
<g id="edge9" class="edge"><title>3&#45;&gt;4</title>
<path fill="none" stroke="grey" stroke-width="2" d="M162.157,-71.6966C155.511,-63.3893 147.422,-53.2771 140.113,-44.1407"/>
<polygon fill="grey" stroke="grey" points="142.664,-41.7266 133.683,-36.1043 137.197,-46.0995 142.664,-41.7266"/>
</g>
<!-- 5 -->
<g id="node6" class="node"><title>5</title>
<path fill="none" stroke="#9fd856" stroke-width="2" d="M160.25,-540C160.25,-540 83.75,-540 83.75,-540 77.75,-540 71.75,-534 71.75,-528 71.75,-528 71.75,-516 71.75,-516 71.75,-510 77.75,-504 83.75,-504 83.75,-504 160.25,-504 160.25,-504 166.25,-504 172.25,-510 172.25,-516 172.25,-516 172.25,-528 172.25,-528 172.25,-534 166.25,-540 160.25,-540"/>
<text text-anchor="middle" x="122" y="-519.5" font-family="sans" font-size="10.00">redundant_genes</text>
</g>
<!-- 5&#45;&gt;0 -->
<g id="edge1" class="edge"><title>5&#45;&gt;0</title>
<path fill="none" stroke="grey" stroke-width="2" d="M107.663,-503.697C100.709,-495.305 92.2298,-485.07 84.5994,-475.861"/>
<polygon fill="grey" stroke="grey" points="87.2475,-473.571 78.1722,-468.104 81.8573,-478.038 87.2475,-473.571"/>
</g>
<!-- 11 -->
<g id="node12" class="node"><title>11</title>
<path fill="none" stroke="#59d856" stroke-width="2" d="M282.25,-468C282.25,-468 169.75,-468 169.75,-468 163.75,-468 157.75,-462 157.75,-456 157.75,-456 157.75,-444 157.75,-444 157.75,-438 163.75,-432 169.75,-432 169.75,-432 282.25,-432 282.25,-432 288.25,-432 294.25,-438 294.25,-444 294.25,-444 294.25,-456 294.25,-456 294.25,-462 288.25,-468 282.25,-468"/>
<text text-anchor="middle" x="226" y="-447.5" font-family="sans" font-size="10.00">nonredundant_catalogue</text>
</g>
<!-- 5&#45;&gt;11 -->
<g id="edge15" class="edge"><title>5&#45;&gt;11</title>
<path fill="none" stroke="grey" stroke-width="2" d="M147.441,-503.876C160.787,-494.893 177.324,-483.763 191.778,-474.034"/>
<polygon fill="grey" stroke="grey" points="194.119,-476.677 200.461,-468.19 190.211,-470.87 194.119,-476.677"/>
</g>
<!-- 6 -->
<g id="node7" class="node"><title>6</title>
<path fill="none" stroke="#78d856" stroke-width="2" d="M168,-612C168,-612 112,-612 112,-612 106,-612 100,-606 100,-600 100,-600 100,-588 100,-588 100,-582 106,-576 112,-576 112,-576 168,-576 168,-576 174,-576 180,-582 180,-588 180,-588 180,-600 180,-600 180,-606 174,-612 168,-612"/>
<text text-anchor="middle" x="140" y="-591.5" font-family="sans" font-size="10.00">gene_predict</text>
</g>
<!-- 6&#45;&gt;0 -->
<g id="edge2" class="edge"><title>6&#45;&gt;0</title>
<path fill="none" stroke="grey" stroke-width="2" d="M99.8197,-575.771C85.1692,-567.28 70.1978,-555.482 62,-540 51.9776,-521.073 53.3916,-496.558 56.7975,-478.051"/>
<polygon fill="grey" stroke="grey" points="60.2358,-478.709 58.8978,-468.199 53.3896,-477.25 60.2358,-478.709"/>
</g>
<!-- 12 -->
<g id="node13" class="node"><title>12</title>
<path fill="none" stroke="#567bd8" stroke-width="2" d="M271.25,-540C271.25,-540 202.75,-540 202.75,-540 196.75,-540 190.75,-534 190.75,-528 190.75,-528 190.75,-516 190.75,-516 190.75,-510 196.75,-504 202.75,-504 202.75,-504 271.25,-504 271.25,-504 277.25,-504 283.25,-510 283.25,-516 283.25,-516 283.25,-528 283.25,-528 283.25,-534 277.25,-540 271.25,-540"/>
<text text-anchor="middle" x="237" y="-519.5" font-family="sans" font-size="10.00">combine_genes</text>
</g>
<!-- 6&#45;&gt;12 -->
<g id="edge17" class="edge"><title>6&#45;&gt;12</title>
<path fill="none" stroke="grey" stroke-width="2" d="M163.978,-575.697C176.311,-566.796 191.516,-555.823 204.853,-546.199"/>
<polygon fill="grey" stroke="grey" points="207.237,-548.794 213.298,-540.104 203.141,-543.118 207.237,-548.794"/>
</g>
<!-- 7 -->
<g id="node8" class="node"><title>7</title>
<path fill="none" stroke="#56d87b" stroke-width="2" d="M213,-396C213,-396 145,-396 145,-396 139,-396 133,-390 133,-384 133,-384 133,-372 133,-372 133,-366 139,-360 145,-360 145,-360 213,-360 213,-360 219,-360 225,-366 225,-372 225,-372 225,-384 225,-384 225,-390 219,-396 213,-396"/>
<text text-anchor="middle" x="179" y="-375.5" font-family="sans" font-size="10.00">minimap_index</text>
</g>
<!-- 8 -->
<g id="node9" class="node"><title>8</title>
<path fill="none" stroke="#56d8c9" stroke-width="2" d="M261.25,-324C261.25,-324 196.75,-324 196.75,-324 190.75,-324 184.75,-318 184.75,-312 184.75,-312 184.75,-300 184.75,-300 184.75,-294 190.75,-288 196.75,-288 196.75,-288 261.25,-288 261.25,-288 267.25,-288 273.25,-294 273.25,-300 273.25,-300 273.25,-312 273.25,-312 273.25,-318 267.25,-324 261.25,-324"/>
<text text-anchor="middle" x="229" y="-303.5" font-family="sans" font-size="10.00">minimap_align</text>
</g>
<!-- 7&#45;&gt;8 -->
<g id="edge12" class="edge"><title>7&#45;&gt;8</title>
<path fill="none" stroke="grey" stroke-width="2" d="M191.36,-359.697C197.233,-351.474 204.369,-341.483 210.842,-332.421"/>
<polygon fill="grey" stroke="grey" points="213.818,-334.276 216.783,-324.104 208.122,-330.207 213.818,-334.276"/>
</g>
<!-- 9 -->
<g id="node10" class="node"><title>9</title>
<path fill="none" stroke="#56c9d8" stroke-width="2" d="M233,-252C233,-252 179,-252 179,-252 173,-252 167,-246 167,-240 167,-240 167,-228 167,-228 167,-222 173,-216 179,-216 179,-216 233,-216 233,-216 239,-216 245,-222 245,-228 245,-228 245,-240 245,-240 245,-246 239,-252 233,-252"/>
<text text-anchor="middle" x="206" y="-231.5" font-family="sans" font-size="10.00">count_genes</text>
</g>
<!-- 8&#45;&gt;9 -->
<g id="edge13" class="edge"><title>8&#45;&gt;9</title>
<path fill="none" stroke="grey" stroke-width="2" d="M223.315,-287.697C220.752,-279.898 217.667,-270.509 214.815,-261.829"/>
<polygon fill="grey" stroke="grey" points="218.067,-260.512 211.62,-252.104 211.416,-262.697 218.067,-260.512"/>
</g>
<!-- 10 -->
<g id="node11" class="node"><title>10</title>
<path fill="none" stroke="#56a2d8" stroke-width="2" d="M301.25,-180C301.25,-180 246.75,-180 246.75,-180 240.75,-180 234.75,-174 234.75,-168 234.75,-168 234.75,-156 234.75,-156 234.75,-150 240.75,-144 246.75,-144 246.75,-144 301.25,-144 301.25,-144 307.25,-144 313.25,-150 313.25,-156 313.25,-156 313.25,-168 313.25,-168 313.25,-174 307.25,-180 301.25,-180"/>
<text text-anchor="middle" x="274" y="-159.5" font-family="sans" font-size="10.00">gene_names</text>
</g>
<!-- 8&#45;&gt;10 -->
<g id="edge14" class="edge"><title>8&#45;&gt;10</title>
<path fill="none" stroke="grey" stroke-width="2" d="M238.327,-287.737C243.519,-277.566 249.769,-264.316 254,-252 260.978,-231.687 266.176,-207.918 269.521,-190.056"/>
<polygon fill="grey" stroke="grey" points="272.997,-190.498 271.32,-180.037 266.108,-189.261 272.997,-190.498"/>
</g>
<!-- 9&#45;&gt;2 -->
<g id="edge4" class="edge"><title>9&#45;&gt;2</title>
<path fill="none" stroke="grey" stroke-width="2" d="M188.449,-215.697C179.766,-207.135 169.137,-196.656 159.652,-187.304"/>
<polygon fill="grey" stroke="grey" points="161.927,-184.633 152.349,-180.104 157.012,-189.617 161.927,-184.633"/>
</g>
<!-- 9&#45;&gt;3 -->
<g id="edge6" class="edge"><title>9&#45;&gt;3</title>
<path fill="none" stroke="grey" stroke-width="2" d="M202.381,-215.871C197.246,-191.564 187.793,-146.819 181.707,-118.013"/>
<polygon fill="grey" stroke="grey" points="185.123,-117.25 179.632,-108.189 178.274,-118.697 185.123,-117.25"/>
</g>
<!-- 10&#45;&gt;3 -->
<g id="edge5" class="edge"><title>10&#45;&gt;3</title>
<path fill="none" stroke="grey" stroke-width="2" d="M250.027,-143.876C237.45,-134.893 221.868,-123.763 208.248,-114.034"/>
<polygon fill="grey" stroke="grey" points="210.237,-111.154 200.066,-108.19 206.169,-116.85 210.237,-111.154"/>
</g>
<!-- 11&#45;&gt;7 -->
<g id="edge10" class="edge"><title>11&#45;&gt;7</title>
<path fill="none" stroke="grey" stroke-width="2" d="M214.382,-431.697C208.861,-423.474 202.153,-413.483 196.068,-404.421"/>
<polygon fill="grey" stroke="grey" points="198.965,-402.456 190.484,-396.104 193.153,-406.358 198.965,-402.456"/>
</g>
<!-- 11&#45;&gt;8 -->
<g id="edge11" class="edge"><title>11&#45;&gt;8</title>
<path fill="none" stroke="grey" stroke-width="2" d="M229.248,-431.888C231.046,-421.542 233.095,-408.063 234,-396 235.554,-375.297 234.106,-351.851 232.376,-334.222"/>
<polygon fill="grey" stroke="grey" points="235.834,-333.644 231.286,-324.074 228.874,-334.391 235.834,-333.644"/>
</g>
<!-- 12&#45;&gt;11 -->
<g id="edge16" class="edge"><title>12&#45;&gt;11</title>
<path fill="none" stroke="grey" stroke-width="2" d="M234.281,-503.697C233.069,-495.983 231.612,-486.712 230.261,-478.112"/>
<polygon fill="grey" stroke="grey" points="233.698,-477.44 228.688,-468.104 226.783,-478.526 233.698,-477.44"/>
</g>
</g>
</svg>
