<?xml version="1.0" encoding="UTF-8" standalone="no"?>
<!DOCTYPE svg PUBLIC "-//W3C//DTD SVG 1.1//EN"
 "http://www.w3.org/Graphics/SVG/1.1/DTD/svg11.dtd">
<!-- Generated by graphviz version 2.30.1 (20180420.1509)
 -->
<!-- Title: snakemake_dag Pages: 1 -->
<svg width="431pt" height="620pt"
 viewBox="0.00 0.00 431.00 620.00" xmlns="http://www.w3.org/2000/svg" xmlns:xlink="http://www.w3.org/1999/xlink">
<g id="graph0" class="graph" transform="scale(1 1) rotate(0) translate(4 616)">
<title>snakemake_dag</title>
<polygon fill="white" stroke="white" points="-4,5 -4,-616 428,-616 428,5 -4,5"/>
<!-- 0 -->
<g id="node1" class="node"><title>0</title>
<path fill="none" stroke="#d85656" stroke-width="2" d="M195,-36C195,-36 165,-36 165,-36 159,-36 153,-30 153,-24 153,-24 153,-12 153,-12 153,-6 159,-0 165,-0 165,-0 195,-0 195,-0 201,-0 207,-6 207,-12 207,-12 207,-24 207,-24 207,-30 201,-36 195,-36"/>
<text text-anchor="middle" x="180" y="-15.5" font-family="sans" font-size="10.00">all</text>
</g>
<!-- 1 -->
<g id="node2" class="node"><title>1</title>
<path fill="none" stroke="#d87d56" stroke-width="2" d="M220.25,-180C220.25,-180 165.75,-180 165.75,-180 159.75,-180 153.75,-174 153.75,-168 153.75,-168 153.75,-156 153.75,-156 153.75,-150 159.75,-144 165.75,-144 165.75,-144 220.25,-144 220.25,-144 226.25,-144 232.25,-150 232.25,-156 232.25,-156 232.25,-168 232.25,-168 232.25,-174 226.25,-180 220.25,-180"/>
<text text-anchor="middle" x="193" y="-159.5" font-family="sans" font-size="10.00">gene_names</text>
</g>
<!-- 6 -->
<g id="node7" class="node"><title>6</title>
<path fill="none" stroke="#56d8a2" stroke-width="2" d="M278,-108C278,-108 192,-108 192,-108 186,-108 180,-102 180,-96 180,-96 180,-84 180,-84 180,-78 186,-72 192,-72 192,-72 278,-72 278,-72 284,-72 290,-78 290,-84 290,-84 290,-96 290,-96 290,-102 284,-108 278,-108"/>
<text text-anchor="middle" x="235" y="-87.5" font-family="sans" font-size="10.00">gene_count_matrix</text>
</g>
<!-- 1&#45;&gt;6 -->
<g id="edge8" class="edge"><title>1&#45;&gt;6</title>
<path fill="none" stroke="grey" stroke-width="2" d="M203.382,-143.697C208.265,-135.559 214.187,-125.689 219.579,-116.701"/>
<polygon fill="grey" stroke="grey" points="222.594,-118.48 224.737,-108.104 216.591,-114.879 222.594,-118.48"/>
</g>
<!-- 2 -->
<g id="node3" class="node"><title>2</title>
<path fill="none" stroke="#d8a456" stroke-width="2" d="M189,-612C189,-612 133,-612 133,-612 127,-612 121,-606 121,-600 121,-600 121,-588 121,-588 121,-582 127,-576 133,-576 133,-576 189,-576 189,-576 195,-576 201,-582 201,-588 201,-588 201,-600 201,-600 201,-606 195,-612 189,-612"/>
<text text-anchor="middle" x="161" y="-591.5" font-family="sans" font-size="10.00">gene_predict</text>
</g>
<!-- 7 -->
<g id="node8" class="node"><title>7</title>
<path fill="none" stroke="#56d87b" stroke-width="2" d="M292.25,-540C292.25,-540 223.75,-540 223.75,-540 217.75,-540 211.75,-534 211.75,-528 211.75,-528 211.75,-516 211.75,-516 211.75,-510 217.75,-504 223.75,-504 223.75,-504 292.25,-504 292.25,-504 298.25,-504 304.25,-510 304.25,-516 304.25,-516 304.25,-528 304.25,-528 304.25,-534 298.25,-540 292.25,-540"/>
<text text-anchor="middle" x="258" y="-519.5" font-family="sans" font-size="10.00">combine_genes</text>
</g>
<!-- 2&#45;&gt;7 -->
<g id="edge11" class="edge"><title>2&#45;&gt;7</title>
<path fill="none" stroke="grey" stroke-width="2" d="M184.978,-575.697C197.311,-566.796 212.516,-555.823 225.853,-546.199"/>
<polygon fill="grey" stroke="grey" points="228.237,-548.794 234.298,-540.104 224.141,-543.118 228.237,-548.794"/>
</g>
<!-- 8 -->
<g id="node9" class="node"><title>8</title>
<path fill="none" stroke="#56d8c9" stroke-width="2" d="M116,-468C116,-468 12,-468 12,-468 6,-468 0,-462 0,-456 0,-456 0,-444 0,-444 0,-438 6,-432 12,-432 12,-432 116,-432 116,-432 122,-432 128,-438 128,-444 128,-444 128,-456 128,-456 128,-462 122,-468 116,-468"/>
<text text-anchor="middle" x="64" y="-447.5" font-family="sans" font-size="10.00">nonredundant_clusters</text>
</g>
<!-- 2&#45;&gt;8 -->
<g id="edge13" class="edge"><title>2&#45;&gt;8</title>
<path fill="none" stroke="grey" stroke-width="2" d="M124.44,-575.999C109.443,-567.261 93.2345,-555.215 83,-540 70.7058,-521.723 66.1672,-496.958 64.5832,-478.192"/>
<polygon fill="grey" stroke="grey" points="68.0758,-477.962 63.966,-468.197 61.0891,-478.393 68.0758,-477.962"/>
</g>
<!-- 3 -->
<g id="node4" class="node"><title>3</title>
<path fill="none" stroke="#d8c356" stroke-width="2" d="M411,-324C411,-324 353,-324 353,-324 347,-324 341,-318 341,-312 341,-312 341,-300 341,-300 341,-294 347,-288 353,-288 353,-288 411,-288 411,-288 417,-288 423,-294 423,-300 423,-300 423,-312 423,-312 423,-318 417,-324 411,-324"/>
<text text-anchor="middle" x="382" y="-303.5" font-family="sans" font-size="10.00">repres_genes</text>
</g>
<!-- 3&#45;&gt;0 -->
<g id="edge3" class="edge"><title>3&#45;&gt;0</title>
<path fill="none" stroke="grey" stroke-width="2" d="M386.905,-287.539C394.539,-256.845 406.216,-191.934 384,-144 352.953,-77.0122 266.668,-42.7851 216.822,-28.1202"/>
<polygon fill="grey" stroke="grey" points="217.644,-24.7154 207.069,-25.3635 215.74,-31.4515 217.644,-24.7154"/>
</g>
<!-- 4 -->
<g id="node5" class="node"><title>4</title>
<path fill="none" stroke="#c6d856" stroke-width="2" d="M181.25,-540C181.25,-540 104.75,-540 104.75,-540 98.75,-540 92.75,-534 92.75,-528 92.75,-528 92.75,-516 92.75,-516 92.75,-510 98.75,-504 104.75,-504 104.75,-504 181.25,-504 181.25,-504 187.25,-504 193.25,-510 193.25,-516 193.25,-516 193.25,-528 193.25,-528 193.25,-534 187.25,-540 181.25,-540"/>
<text text-anchor="middle" x="143" y="-519.5" font-family="sans" font-size="10.00">redundant_genes</text>
</g>
<!-- 4&#45;&gt;8 -->
<g id="edge12" class="edge"><title>4&#45;&gt;8</title>
<path fill="none" stroke="grey" stroke-width="2" d="M123.472,-503.697C113.618,-494.965 101.514,-484.24 90.8039,-474.75"/>
<polygon fill="grey" stroke="grey" points="93.1092,-472.117 83.3035,-468.104 88.4669,-477.356 93.1092,-472.117"/>
</g>
<!-- 13 -->
<g id="node14" class="node"><title>13</title>
<path fill="none" stroke="#567bd8" stroke-width="2" d="M271.25,-468C271.25,-468 158.75,-468 158.75,-468 152.75,-468 146.75,-462 146.75,-456 146.75,-456 146.75,-444 146.75,-444 146.75,-438 152.75,-432 158.75,-432 158.75,-432 271.25,-432 271.25,-432 277.25,-432 283.25,-438 283.25,-444 283.25,-444 283.25,-456 283.25,-456 283.25,-462 277.25,-468 271.25,-468"/>
<text text-anchor="middle" x="215" y="-447.5" font-family="sans" font-size="10.00">nonredundant_catalogue</text>
</g>
<!-- 4&#45;&gt;13 -->
<g id="edge19" class="edge"><title>4&#45;&gt;13</title>
<path fill="none" stroke="grey" stroke-width="2" d="M160.798,-503.697C169.604,-495.135 180.382,-484.656 190.001,-475.304"/>
<polygon fill="grey" stroke="grey" points="192.677,-477.585 197.407,-468.104 187.797,-472.566 192.677,-477.585"/>
</g>
<!-- 5 -->
<g id="node6" class="node"><title>5</title>
<path fill="none" stroke="#9fd856" stroke-width="2" d="M241,-396C241,-396 173,-396 173,-396 167,-396 161,-390 161,-384 161,-384 161,-372 161,-372 161,-366 167,-360 173,-360 173,-360 241,-360 241,-360 247,-360 253,-366 253,-372 253,-372 253,-384 253,-384 253,-390 247,-396 241,-396"/>
<text text-anchor="middle" x="207" y="-375.5" font-family="sans" font-size="10.00">minimap_index</text>
</g>
<!-- 12 -->
<g id="node13" class="node"><title>12</title>
<path fill="none" stroke="#78d856" stroke-width="2" d="M266.25,-324C266.25,-324 201.75,-324 201.75,-324 195.75,-324 189.75,-318 189.75,-312 189.75,-312 189.75,-300 189.75,-300 189.75,-294 195.75,-288 201.75,-288 201.75,-288 266.25,-288 266.25,-288 272.25,-288 278.25,-294 278.25,-300 278.25,-300 278.25,-312 278.25,-312 278.25,-318 272.25,-324 266.25,-324"/>
<text text-anchor="middle" x="234" y="-303.5" font-family="sans" font-size="10.00">minimap_align</text>
</g>
<!-- 5&#45;&gt;12 -->
<g id="edge17" class="edge"><title>5&#45;&gt;12</title>
<path fill="none" stroke="grey" stroke-width="2" d="M213.674,-359.697C216.715,-351.813 220.383,-342.304 223.761,-333.546"/>
<polygon fill="grey" stroke="grey" points="227.069,-334.694 227.403,-324.104 220.538,-332.175 227.069,-334.694"/>
</g>
<!-- 6&#45;&gt;0 -->
<g id="edge2" class="edge"><title>6&#45;&gt;0</title>
<path fill="none" stroke="grey" stroke-width="2" d="M221.404,-71.6966C214.877,-63.3893 206.932,-53.2771 199.753,-44.1407"/>
<polygon fill="grey" stroke="grey" points="202.369,-41.8051 193.439,-36.1043 196.865,-46.1299 202.369,-41.8051"/>
</g>
<!-- 7&#45;&gt;3 -->
<g id="edge6" class="edge"><title>7&#45;&gt;3</title>
<path fill="none" stroke="grey" stroke-width="2" d="M269.291,-503.979C276.039,-493.666 284.693,-480.189 292,-468 320.053,-421.207 350.629,-365.387 367.945,-333.281"/>
<polygon fill="grey" stroke="grey" points="371.221,-334.58 372.875,-324.115 365.056,-331.263 371.221,-334.58"/>
</g>
<!-- 7&#45;&gt;13 -->
<g id="edge20" class="edge"><title>7&#45;&gt;13</title>
<path fill="none" stroke="grey" stroke-width="2" d="M247.371,-503.697C242.372,-495.559 236.309,-485.689 230.788,-476.701"/>
<polygon fill="grey" stroke="grey" points="233.723,-474.793 225.507,-468.104 227.759,-478.457 233.723,-474.793"/>
</g>
<!-- 11 -->
<g id="node12" class="node"><title>11</title>
<path fill="none" stroke="#56a2d8" stroke-width="2" d="M85,-252C85,-252 43,-252 43,-252 37,-252 31,-246 31,-240 31,-240 31,-228 31,-228 31,-222 37,-216 43,-216 43,-216 85,-216 85,-216 91,-216 97,-222 97,-228 97,-228 97,-240 97,-240 97,-246 91,-252 85,-252"/>
<text text-anchor="middle" x="64" y="-231.5" font-family="sans" font-size="10.00">gene_lists</text>
</g>
<!-- 8&#45;&gt;11 -->
<g id="edge16" class="edge"><title>8&#45;&gt;11</title>
<path fill="none" stroke="grey" stroke-width="2" d="M64,-431.849C64,-394.832 64,-307.181 64,-262.386"/>
<polygon fill="grey" stroke="grey" points="67.5001,-262.232 64,-252.232 60.5001,-262.232 67.5001,-262.232"/>
</g>
<!-- 9 -->
<g id="node10" class="node"><title>9</title>
<path fill="none" stroke="#59d856" stroke-width="2" d="M363,-180C363,-180 301,-180 301,-180 295,-180 289,-174 289,-168 289,-168 289,-156 289,-156 289,-150 295,-144 301,-144 301,-144 363,-144 363,-144 369,-144 375,-150 375,-156 375,-156 375,-168 375,-168 375,-174 369,-180 363,-180"/>
<text text-anchor="middle" x="332" y="-159.5" font-family="sans" font-size="10.00">create_header</text>
</g>
<!-- 9&#45;&gt;6 -->
<g id="edge10" class="edge"><title>9&#45;&gt;6</title>
<path fill="none" stroke="grey" stroke-width="2" d="M308.022,-143.697C295.689,-134.796 280.484,-123.823 267.147,-114.199"/>
<polygon fill="grey" stroke="grey" points="268.859,-111.118 258.702,-108.104 264.763,-116.794 268.859,-111.118"/>
</g>
<!-- 10 -->
<g id="node11" class="node"><title>10</title>
<path fill="none" stroke="#56c9d8" stroke-width="2" d="M288,-252C288,-252 234,-252 234,-252 228,-252 222,-246 222,-240 222,-240 222,-228 222,-228 222,-222 228,-216 234,-216 234,-216 288,-216 288,-216 294,-216 300,-222 300,-228 300,-228 300,-240 300,-240 300,-246 294,-252 288,-252"/>
<text text-anchor="middle" x="261" y="-231.5" font-family="sans" font-size="10.00">count_genes</text>
</g>
<!-- 10&#45;&gt;6 -->
<g id="edge9" class="edge"><title>10&#45;&gt;6</title>
<path fill="none" stroke="grey" stroke-width="2" d="M257.864,-215.871C253.433,-191.67 245.292,-147.211 240.016,-118.393"/>
<polygon fill="grey" stroke="grey" points="243.391,-117.395 238.147,-108.189 236.506,-118.656 243.391,-117.395"/>
</g>
<!-- 10&#45;&gt;9 -->
<g id="edge14" class="edge"><title>10&#45;&gt;9</title>
<path fill="none" stroke="grey" stroke-width="2" d="M278.551,-215.697C287.234,-207.135 297.863,-196.656 307.348,-187.304"/>
<polygon fill="grey" stroke="grey" points="309.988,-189.617 314.651,-180.104 305.073,-184.633 309.988,-189.617"/>
</g>
<!-- 11&#45;&gt;0 -->
<g id="edge1" class="edge"><title>11&#45;&gt;0</title>
<path fill="none" stroke="grey" stroke-width="2" d="M65.5328,-215.52C69.005,-184.231 79.7653,-117.664 111,-72 119.578,-59.4594 132.067,-48.5914 144.07,-40.0175"/>
<polygon fill="grey" stroke="grey" points="146.351,-42.6996 152.661,-34.1888 142.421,-36.9069 146.351,-42.6996"/>
</g>
<!-- 12&#45;&gt;1 -->
<g id="edge5" class="edge"><title>12&#45;&gt;1</title>
<path fill="none" stroke="grey" stroke-width="2" d="M226.3,-287.579C221.984,-277.356 216.734,-264.106 213,-252 206.709,-231.602 201.498,-208.011 197.974,-190.244"/>
<polygon fill="grey" stroke="grey" points="201.381,-189.427 196.051,-180.27 194.508,-190.752 201.381,-189.427"/>
</g>
<!-- 12&#45;&gt;10 -->
<g id="edge15" class="edge"><title>12&#45;&gt;10</title>
<path fill="none" stroke="grey" stroke-width="2" d="M240.674,-287.697C243.715,-279.813 247.383,-270.304 250.761,-261.546"/>
<polygon fill="grey" stroke="grey" points="254.069,-262.694 254.403,-252.104 247.538,-260.175 254.069,-262.694"/>
</g>
<!-- 13&#45;&gt;0 -->
<g id="edge4" class="edge"><title>13&#45;&gt;0</title>
<path fill="none" stroke="grey" stroke-width="2" d="M188.228,-431.91C175.635,-422.65 161.363,-410.2 152,-396 129.244,-361.492 125,-348.336 125,-307 125,-307 125,-307 125,-161 125,-118.008 147.193,-72.337 163.384,-44.7379"/>
<polygon fill="grey" stroke="grey" points="166.427,-46.4698 168.604,-36.1011 160.436,-42.849 166.427,-46.4698"/>
</g>
<!-- 13&#45;&gt;5 -->
<g id="edge7" class="edge"><title>13&#45;&gt;5</title>
<path fill="none" stroke="grey" stroke-width="2" d="M213.022,-431.697C212.141,-423.983 211.081,-414.712 210.099,-406.112"/>
<polygon fill="grey" stroke="grey" points="213.568,-405.642 208.955,-396.104 206.613,-406.437 213.568,-405.642"/>
</g>
<!-- 13&#45;&gt;12 -->
<g id="edge18" class="edge"><title>13&#45;&gt;12</title>
<path fill="none" stroke="grey" stroke-width="2" d="M236.267,-431.701C246.109,-422.305 256.763,-409.798 262,-396 269.929,-375.108 261.181,-350.888 251.428,-332.993"/>
<polygon fill="grey" stroke="grey" points="254.391,-331.126 246.319,-324.263 248.349,-334.662 254.391,-331.126"/>
</g>
</g>
</svg>
